<?xml version="1.0" encoding="utf-8"?>
<!-- Generator: Adobe Illustrator 27.5.0, SVG Export Plug-In . SVG Version: 6.00 Build 0)  -->
<svg version="1.1" id="Layer_1" xmlns="http://www.w3.org/2000/svg" xmlns:xlink="http://www.w3.org/1999/xlink" x="0px" y="0px"
	 width="155px" height="34px" viewBox="0 0 155 34" style="enable-background:new 0 0 155 34;" xml:space="preserve">
<style type="text/css">
	.st0{fill-rule:evenodd;clip-rule:evenodd;fill:#0540F7;}
	.st1{fill:#FFFFFF;}
</style>
<g>
	<path class="st0" d="M18.1,27.8c2.3,1.7,3.7,3.7,3.8,5.5v0.1h5.7v-0.1c0-1.8,1.1-3.5,3.6-5.2c0,0,0,0,0,0l0.1-0.1c0,0,0,0,0,0
		l0.1,0v-7c-0.2,0.1-0.3,0.2-0.4,0.3l-0.2,0.1c-1,0.6-1.9,1.1-2.7,1.7l-0.1,0.1c-1.2,0.9-2.4,1.9-3.3,3c-0.9-1.1-2.1-2.1-3.3-3
		c-0.8-0.6-1.7-1.1-2.8-1.8l-0.2-0.1c-0.1-0.1-0.2-0.1-0.4-0.2l-1.8-1c-0.3-0.2-0.5-0.3-0.7-0.4l-0.2-0.1c-1.1-0.7-2.1-1.2-3-1.9
		c-1.7-1.2-2.8-2.4-3.4-3.7c-0.4-0.9-0.5-1.7-0.5-2.5c0-2.9,2.3-5.2,5.2-5.2S19,8.7,19,11.5c0,0.8-0.1,1.6-0.5,2.5
		c-0.5,1.1-1.4,2.2-2.8,3.2c0.2,0.1,0.5,0.3,0.8,0.4l0.2,0.1l0.1,0.1l1.3,0.8c0.7,0.4,1.1,0.6,1.4,0.8l0.3,0.2
		c0.4,0.2,0.7,0.4,1,0.6l0.1,0.1c1.2-1.2,2.1-2.5,2.7-3.9c0.8-1.7,1-3.3,1-4.8c0-6-4.8-10.8-10.7-10.9h-0.2h-0.2
		C7.7,0.7,2.9,5.6,2.9,11.5c0,1.6,0.3,3.2,1,4.8c1,2.2,2.8,4.3,5.4,6c1.1,0.7,2.2,1.4,3.4,2.1l0,0c0.1,0.1,0.2,0.1,0.4,0.2l1.9,1.1
		c0.2,0.1,0.4,0.2,0.5,0.3l0.2,0.1C16.8,26.8,17.5,27.3,18.1,27.8z M8.2,24.2c-0.6-0.4-1.2-0.8-1.7-1.3l0,0
		c-0.1,0.1-0.2,0.1-0.3,0.2c-1.6,1.2-3,2.5-4.1,4c-1.3,1.9-2.1,4-2.1,6.2h5.7c0-1.9,1.4-3.9,3.8-5.6c0.6-0.4,1.2-0.8,2-1.3l0.2-0.1
		l-0.1-0.1C10.3,25.5,9.2,24.9,8.2,24.2z"/>
	<g>
		<path class="st1" d="M45,24.2c-0.1,0-0.2-0.1-0.3-0.1s-0.2-0.2-0.2-0.4V10.8c0-0.1,0.1-0.3,0.2-0.4s0.2-0.1,0.3-0.1h1.8
			c0.2,0,0.3,0.1,0.4,0.2c0.1,0.1,0.2,0.2,0.2,0.2l3.6,6.7l3.7-6.7c0-0.1,0.1-0.1,0.2-0.2c0.1-0.1,0.2-0.2,0.4-0.2h1.8
			c0.1,0,0.3,0.1,0.4,0.1s0.1,0.2,0.1,0.4v12.9c0,0.1-0.1,0.3-0.1,0.4s-0.2,0.1-0.4,0.1h-2c-0.1,0-0.2-0.1-0.3-0.1
			c-0.1-0.1-0.1-0.2-0.1-0.4v-8l-2.5,4.7c-0.1,0.1-0.2,0.2-0.3,0.3c-0.1,0.1-0.2,0.1-0.4,0.1h-0.9c-0.2,0-0.3-0.1-0.4-0.1
			c-0.1-0.1-0.2-0.2-0.3-0.3l-2.5-4.7v8c0,0.1-0.1,0.3-0.1,0.4s-0.2,0.1-0.3,0.1L45,24.2L45,24.2z"/>
		<path class="st1" d="M65.8,24.4c-1.2,0-2.2-0.2-3-0.6c-0.9-0.4-1.5-1-2-1.8c-0.5-0.8-0.7-1.8-0.7-3.1v-8.1c0-0.1,0.1-0.3,0.1-0.4
			c0.1-0.1,0.2-0.1,0.4-0.1h2.2c0.1,0,0.3,0.1,0.4,0.1c0.1,0.1,0.1,0.2,0.1,0.4v8.1c0,1,0.2,1.7,0.7,2.2s1.1,0.7,1.9,0.7
			c0.8,0,1.5-0.2,1.9-0.7c0.5-0.5,0.7-1.2,0.7-2.2v-8.1c0-0.1,0.1-0.3,0.2-0.4c0.1-0.1,0.2-0.1,0.3-0.1h2.2c0.1,0,0.2,0.1,0.3,0.1
			c0.1,0.1,0.1,0.2,0.1,0.4v8.1c0,1.3-0.2,2.3-0.7,3.1c-0.5,0.8-1.1,1.4-2,1.8C68,24.2,66.9,24.4,65.8,24.4z"/>
		<path class="st1" d="M74.2,24.2c-0.1,0-0.3-0.1-0.4-0.1c-0.1-0.1-0.1-0.2-0.1-0.4V10.8c0-0.1,0.1-0.3,0.1-0.4
			c0.1-0.1,0.2-0.1,0.4-0.1h2.2c0.1,0,0.3,0.1,0.4,0.1c0.1,0.1,0.1,0.2,0.1,0.4v10.7h6.1c0.1,0,0.3,0.1,0.4,0.1
			c0.1,0.1,0.1,0.2,0.1,0.4v1.7c0,0.1-0.1,0.3-0.1,0.4c-0.1,0.1-0.2,0.1-0.4,0.1L74.2,24.2L74.2,24.2z"/>
		<path class="st1" d="M86,24.2c-0.1,0-0.3-0.1-0.4-0.1c-0.1-0.1-0.1-0.2-0.1-0.4V13.1h-3.6c-0.1,0-0.2-0.1-0.3-0.1
			s-0.1-0.2-0.1-0.3v-1.8c0-0.1,0.1-0.3,0.1-0.4c0.1-0.1,0.2-0.1,0.3-0.1h10.4c0.1,0,0.3,0.1,0.4,0.1s0.1,0.2,0.1,0.4v1.8
			c0,0.1-0.1,0.2-0.1,0.3s-0.2,0.1-0.4,0.1h-3.6v10.6c0,0.1-0.1,0.3-0.1,0.4c-0.1,0.1-0.2,0.1-0.4,0.1H86z"/>
		<path class="st1" d="M95.3,24.2c-0.1,0-0.3-0.1-0.4-0.1s-0.1-0.2-0.1-0.4V10.8c0-0.1,0.1-0.3,0.1-0.4s0.2-0.1,0.4-0.1h2.2
			c0.1,0,0.3,0.1,0.4,0.1c0.1,0.1,0.1,0.2,0.1,0.4v12.9c0,0.1-0.1,0.3-0.1,0.4c-0.1,0.1-0.2,0.1-0.4,0.1H95.3z"/>
		<path class="st1" d="M100.8,24.2c-0.1,0-0.3-0.1-0.4-0.1c-0.1-0.1-0.1-0.2-0.1-0.4V10.8c0-0.1,0.1-0.3,0.1-0.4
			c0.1-0.1,0.2-0.1,0.4-0.1h2.2c0.1,0,0.3,0.1,0.4,0.1c0.1,0.1,0.1,0.2,0.1,0.4v10.7h6.1c0.1,0,0.3,0.1,0.4,0.1
			c0.1,0.1,0.1,0.2,0.1,0.4v1.7c0,0.1-0.1,0.3-0.1,0.4c-0.1,0.1-0.2,0.1-0.4,0.1L100.8,24.2L100.8,24.2z"/>
		<path class="st1" d="M117.2,24.4c-1.2,0-2.2-0.2-3.1-0.6c-0.9-0.4-1.6-1-2-1.8c-0.5-0.8-0.8-1.8-0.8-3c0-0.6,0-1.1,0-1.7
			c0-0.6,0-1.1,0-1.7c0-1.2,0.3-2.2,0.8-3c0.5-0.8,1.2-1.4,2.1-1.8c0.9-0.4,1.9-0.6,3.1-0.6c1.2,0,2.2,0.2,3.1,0.6
			c0.9,0.4,1.6,1,2.1,1.8c0.5,0.8,0.8,1.8,0.8,3c0,0.6,0,1.1,0,1.7c0,0.6,0,1.1,0,1.7c0,1.2-0.3,2.2-0.8,3c-0.5,0.8-1.2,1.4-2,1.8
			C119.4,24.2,118.4,24.4,117.2,24.4z M117.2,21.9c0.8,0,1.4-0.2,1.9-0.7s0.8-1.2,0.8-2.2c0-0.6,0-1.1,0-1.6s0-1,0-1.6
			c0-0.7-0.1-1.3-0.4-1.7c-0.2-0.4-0.5-0.8-0.9-1c-0.4-0.2-0.8-0.3-1.4-0.3c-0.5,0-1,0.1-1.4,0.3c-0.4,0.2-0.7,0.5-0.9,1
			c-0.2,0.4-0.4,1-0.4,1.7c0,0.6,0,1.1,0,1.6s0,1.1,0,1.6c0,1,0.3,1.8,0.8,2.2C115.8,21.6,116.4,21.9,117.2,21.9z"/>
		<path class="st1" d="M130.5,24.4c-1.2,0-2.3-0.2-3.2-0.6c-0.9-0.4-1.6-1-2-1.8c-0.5-0.8-0.7-1.8-0.8-2.9c0-0.6,0-1.2,0-1.8
			c0-0.7,0-1.3,0-1.8c0-1.1,0.3-2.1,0.8-2.8c0.5-0.8,1.2-1.4,2.1-1.8c0.9-0.4,1.9-0.6,3.2-0.6c1,0,1.8,0.1,2.6,0.4
			c0.7,0.3,1.4,0.6,1.9,1s0.9,0.8,1.1,1.3c0.3,0.5,0.4,0.9,0.4,1.4c0,0.1,0,0.2-0.1,0.3c-0.1,0.1-0.2,0.1-0.3,0.1h-2.5
			c-0.1,0-0.2,0-0.3-0.1s-0.1-0.1-0.2-0.2c-0.1-0.2-0.2-0.5-0.4-0.7s-0.5-0.5-0.8-0.6c-0.3-0.2-0.8-0.3-1.4-0.3
			c-0.8,0-1.5,0.2-2,0.7c-0.5,0.4-0.7,1.1-0.8,2.1c0,1.1,0,2.3,0,3.5c0,1,0.3,1.8,0.8,2.2c0.5,0.4,1.2,0.7,2,0.7
			c0.5,0,1-0.1,1.5-0.3c0.4-0.2,0.8-0.5,1-0.9c0.3-0.4,0.4-0.9,0.4-1.6v-0.5h-2.2c-0.1,0-0.2-0.1-0.3-0.2c-0.1-0.1-0.1-0.2-0.1-0.3
			v-1.3c0-0.1,0.1-0.3,0.1-0.4s0.2-0.1,0.3-0.1h4.9c0.1,0,0.3,0.1,0.4,0.1c0.1,0.1,0.1,0.2,0.1,0.4V19c0,1.1-0.2,2.1-0.7,2.9
			c-0.5,0.8-1.2,1.4-2.1,1.8C132.8,24.2,131.8,24.4,130.5,24.4z"/>
		<path class="st1" d="M138.8,24.2c-0.1,0-0.3-0.1-0.4-0.1c-0.1-0.1-0.1-0.2-0.1-0.4V10.8c0-0.1,0.1-0.3,0.1-0.4
			c0.1-0.1,0.2-0.1,0.4-0.1h2.2c0.1,0,0.3,0.1,0.4,0.1s0.1,0.2,0.1,0.4v12.9c0,0.1-0.1,0.3-0.1,0.4s-0.2,0.1-0.4,0.1H138.8z"/>
		<path class="st1" d="M144.3,24.2c-0.1,0-0.3-0.1-0.4-0.1c-0.1-0.1-0.1-0.2-0.1-0.4V10.8c0-0.1,0.1-0.3,0.1-0.4
			c0.1-0.1,0.2-0.1,0.4-0.1h1.8c0.2,0,0.3,0.1,0.4,0.1s0.2,0.2,0.2,0.2L152,19v-8.1c0-0.1,0.1-0.3,0.1-0.4c0.1-0.1,0.2-0.1,0.3-0.1
			h2c0.1,0,0.3,0.1,0.4,0.1s0.1,0.2,0.1,0.4v12.9c0,0.1-0.1,0.2-0.1,0.3s-0.2,0.2-0.4,0.2h-1.8c-0.2,0-0.3-0.1-0.4-0.2
			c-0.1-0.1-0.2-0.2-0.2-0.2l-5.3-8v7.9c0,0.1-0.1,0.3-0.1,0.4s-0.2,0.1-0.4,0.1L144.3,24.2L144.3,24.2z"/>
	</g>
</g>
</svg>
