<svg width="22" height="22" viewBox="0 0 22 22" fill="none" xmlns="http://www.w3.org/2000/svg">
<g clip-path="url(#clip0_18187_11865)">
<path d="M11.177 21.4763C17.104 21.4763 21.9087 16.786 21.9087 11.0001C21.9087 5.21428 17.104 0.523926 11.177 0.523926C5.25006 0.523926 0.445312 5.21428 0.445312 11.0001C0.445312 16.786 5.25006 21.4763 11.177 21.4763Z" fill="#FF492C"/>
<path d="M15.8199 8.54777H13.987C14.0363 8.26701 14.2145 8.10987 14.5751 7.93177L14.912 7.76415C15.5152 7.46244 15.8371 7.12091 15.8371 6.56358C15.8371 6.21367 15.6976 5.9371 15.4207 5.73806C15.1439 5.53901 14.8176 5.44053 14.4356 5.44053C14.14 5.43714 13.8498 5.51796 13.6006 5.6731C13.3495 5.82396 13.1628 6.01882 13.0469 6.26187L13.577 6.78148C13.7831 6.37501 14.0814 6.17596 14.4742 6.17596C14.8069 6.17596 15.0108 6.34358 15.0108 6.57615C15.0108 6.77101 14.912 6.93234 14.53 7.12091L14.3132 7.22358C13.8432 7.45615 13.5169 7.72225 13.328 8.02396C13.1392 8.32568 13.0469 8.70491 13.0469 9.16377V9.28948H15.8199V8.54777Z" fill="white"/>
<path d="M15.5778 10.1455H12.5429L11.0254 12.7101H14.0603L15.5778 15.2767L17.0952 12.7101L15.5778 10.1455Z" fill="white"/>
<path d="M11.2844 14.4218C9.35273 14.4218 7.77947 12.886 7.77947 11.0003C7.77947 9.11454 9.35273 7.57873 11.2844 7.57873L12.4842 5.1294C12.0891 5.0527 11.6873 5.0141 11.2844 5.01416C7.89751 5.01416 5.15234 7.69397 5.15234 11.0003C5.15234 14.3065 7.89751 16.9864 11.2844 16.9864C12.5824 16.9887 13.8472 16.5865 14.8946 15.8382L13.5681 13.5921C12.9336 14.1272 12.123 14.4217 11.2844 14.4218Z" fill="white"/>
</g>
<defs>
<clipPath id="clip0_18187_11865">
<rect width="22" height="22" fill="white"/>
</clipPath>
</defs>
</svg>
