<svg width="22" height="22" viewBox="0 0 22 22" fill="none" xmlns="http://www.w3.org/2000/svg">
<g clip-path="url(#clip0_18187_11881)">
<path d="M21.8061 10.9031C21.8061 16.9243 16.9243 21.8061 10.9031 21.8061C4.88102 21.8061 0 16.9243 0 10.9031C0 4.88102 4.88139 0 10.9031 0C16.9243 0 21.8061 4.88139 21.8061 10.9031Z" fill="#DA552F"/>
<path d="M12.3555 10.9032H9.26655V7.63227H12.3555C12.5703 7.63227 12.7829 7.67457 12.9814 7.75676C13.1798 7.83895 13.3601 7.95942 13.5119 8.11128C13.6638 8.26315 13.7843 8.44344 13.8665 8.64187C13.9487 8.84029 13.991 9.05296 13.991 9.26773C13.991 9.4825 13.9487 9.69517 13.8665 9.89359C13.7843 10.092 13.6638 10.2723 13.5119 10.4242C13.3601 10.576 13.1798 10.6965 12.9814 10.7787C12.7829 10.8609 12.5703 10.9032 12.3555 10.9032ZM12.3555 5.45166H7.08594V16.3547H9.26655V13.0838H12.3555C14.463 13.0838 16.1716 11.3753 16.1716 9.26773C16.1716 7.1602 14.463 5.45166 12.3555 5.45166Z" fill="white"/>
</g>
<defs>
<clipPath id="clip0_18187_11881">
<rect width="22" height="22" fill="white"/>
</clipPath>
</defs>
</svg>
